<?xml version="1.0" standalone="no"?>
<!DOCTYPE svg PUBLIC "-//W3C//DTD SVG 1.1//EN" "http://www.w3.org/Graphics/SVG/1.1/DTD/svg11.dtd" >
<svg xmlns="http://www.w3.org/2000/svg">
  <metadata>Created by iconfont</metadata>
  <defs>
  <font id="iconfont" horiz-adv-x="1024">
    <font-face
      font-family="iconfont"
      font-weight="400"
      font-stretch="normal"
      units-per-em="1024"
      ascent="896"
      descent="-128"
    />
      <missing-glyph />
      
      <glyph glyph-name="rect-solid" unicode="&#58892;" d="M0 896z m85.33 0h853.34Q1024 896 1024 810.67v-853.34q0-85.33-85.33-85.33H85.33Q0-128 0-42.67V810.67Q0 896 85.33 896z"  horiz-adv-x="1024" />
      
      <glyph glyph-name="notice-empty" unicode="&#58895;" d="M874 746q150-158 150-362T874 22q-158-150-362-150T150 22Q0 180 0 384t150 362Q308 896 512 896t362-150z m-45-45Q691 832 512 832T195 701Q64 563 64 384t131-317q138-131 317-131t317 131q131 138 131 317T829 701zM481 498z m31 0q32 0 32-32v-320q0-31-32-31-31 0-31 31V466q0 32 31 32z m1 97z m-39 0q0-17 11-28t27.5-11q16.5 0 27.5 11t11 27.5q0 16.5-11 27.5t-27.5 11q-16.5 0-27.5-11t-11-27z"  horiz-adv-x="1024" />
      
      <glyph glyph-name="close" unicode="&#58894;" d="M557 384l457-457q10-10 10-23t-9.5-22.5q-9.5-9.5-22.5-9.5t-23 10L512 339 55-118q-10-10-23-10t-22.5 9.5Q0-109 0-96t10 23l457 457L10 841Q0 851 0 864T9.5 886.5Q19 896 32 896t23-10l457-457L969 886q10 10 23 10t22.5-9.5Q1024 877 1024 864t-10-23L557 384z"  horiz-adv-x="1024" />
      
      <glyph glyph-name="code" unicode="&#58893;" d="M639.89 893.72q17.59-5.41 25.02-21.64 7.44-16.23 2.03-32.46L469.48 266.17q-6.76-16.23-21.64-23.67-14.88-7.44-32.46-1.36-17.58 6.09-25.02 20.97-7.44 14.88-2.03 32.46l197.46 572.1q6.77 17.58 21.64 25.02 14.88 7.44 32.46 2.03z m-320.53-85.2q12.17-13.53 12.17-30.43 0-16.91-12.17-30.44L104.31 532.61l215.05-213.69q10.82-12.18 12.17-27.05 1.35-14.88-8.12-28.4l-4.05-5.41q-12.18-12.17-27.06-13.52-14.88-1.35-28.41 8.11l-6.76 5.41-244.8 244.8Q1.51 513.68 0.16 529.24q-1.35 15.55 8.11 29.08l4.06 5.41 244.8 244.8q13.53 12.17 31.11 12.17t31.11-12.17z m440.91 5.41l6.76-5.41 244.8-244.8 4.06-6.77q8.11-10.82 8.11-23.67 0-12.84-8.11-25.02l-4.06-5.41-244.8-244.8-6.76-5.41q-10.82-8.11-24.35-8.11-13.52 0-24.34 8.11l-6.77 5.41-4.05 5.41q-8.12 12.18-8.12 25.02 0 12.85 8.12 25.02l4.05 5.41L919.86 532.6 704.81 747.64q-10.82 12.18-11.49 28.41-0.68 16.23 10.14 29.08 10.82 12.84 27.05 15.55 16.23 2.7 29.76-6.75z"  horiz-adv-x="1024" />
      
      <glyph glyph-name="arrow-circle-right" unicode="&#58937;" d="M512 896q217.33-5.33 362-150t150-362q-5.33-217.33-150-362t-362-150q-217.33 5.33-362 150T0 384q5.33 217.33 150 362T512 896z m-25.33-210.67q-25.34 25.34-60.01 25.34-34.66 0-60-25.34-25.33-25.33-25.33-60t25.34-60.01l180-181.33-180-181.33q-25.34-25.34-25.34-60t25.33-60q25.34-25.33 60-25.33 34.67 0 60.01 25.34L789.33 384 486.67 685.33z"  horiz-adv-x="1024" />
      
      <glyph glyph-name="fail-solid" unicode="&#58934;" d="M505.33 896q104 0 198.67-38.66 94.67-38.66 168.67-112.67 74-74 112.67-168.67Q1024 481.33 1024 377.33 1018.67 164 873.34 20.66 728-122.67 505.33-128 292-122.67 148.67 20.66 5.34 164 0.01 377.33q5.33 222.67 148.66 368Q292.01 890.66 505.33 895.99z m140-306.67L512 456 378.67 589.33q-8 8-20 2.67l-4-4L308 541.33q-9.33-9.33-4-20l2.67-4L440 384 306.67 250.67q-5.34-5.34-4.67-12 0.67-6.66 6-12L354.67 180q12-10.67 24-1.33L512 312l133.33-133.33q8-8 20-2.67l4 2.67 46.67 48q9.33 9.33 4 20l-2.67 4L584 384l133.33 133.33q5.34 5.34 4.67 12.01-0.67 6.66-4.67 11.99l-48 46.67q-12 10.67-24 1.33z"  horiz-adv-x="1024" />
      
      <glyph glyph-name="copy" unicode="&#58935;" d="M938.67 640q36-1.33 60-25.33t25.33-60v-597.34q-1.33-36-25.33-60t-60-25.33H341.33q-36 1.33-60 25.33t-25.33 60v85.34h85.33V0q0-16 10-27.34 10-11.33 24.67-14l8-1.34h512q16 0 27.34 10 11.33 10 14 24.67l1.34 8v512q0 18.67-12 30.67t-30.67 12h-42.67v85.33h85.34z m-256 256q36-1.33 60-25.33t25.33-60v-597.34q-1.33-36-25.33-60t-60-25.33H85.33q-36 1.33-60 25.33T0 213.33V810.67q1.33 36 25.33 60T85.33 896h597.34zM640 810.67H128q-16 0-27.34-10-11.33-10-13.99-24.67l-1.34-8v-512q0-16 10-27.34 10-11.33 24.67-14l8-1.34h512q16 0 27.34 10 11.33 10 14 24.67l1.34 8v512q0 18.67-12 30.67t-30.67 12z"  horiz-adv-x="1024" />
      
      <glyph glyph-name="upward" unicode="&#58938;" d="M200.77 637.98l83.32-57.78q-83.32-73.91-109.52-176.04-26.2-102.13 12.1-205.6 38.3-103.48 124.98-164.62t197.54-61.82q110.87-0.67 198.22 59.13 87.35 59.8 126.99 162.61 39.64 102.8 14.78 205.61-24.86 102.81-105.49 176.72l83.32 59.13q96.76-99.45 122.96-229.8 26.21-130.35-26.2-259.36-53.76-126.32-164.63-200.23t-249.27-73.91q-138.42 1.34-248.62 76.6-110.19 75.25-163.94 202.92-49.72 129-22.17 259.36 27.55 130.36 125.65 227.11zM546.14 883.91L696.65 733.4q12.09-13.44 12.09-30.24 0-16.8-12.09-30.24l-9.41-9.4q-13.44-12.1-30.91-12.1t-30.9 12.1l-60.48 60.47 1.35-424.65q-1.35-17.47-13.44-29.57-12.1-12.1-29.57-13.43h-13.43q-18.82 1.34-30.91 13.43-12.1 12.1-12.1 29.57V723.99l-60.47-60.47q-13.44-12.1-30.91-12.1t-29.56 12.1l-10.75 9.4q-12.1 13.44-12.1 30.24 0 16.8 12.1 30.24L485.67 883.91Q499.11 896 515.9 896q16.8 0 30.24-12.09z"  horiz-adv-x="1024" />
      
      <glyph glyph-name="min" unicode="&#58936;" d="M974.67 257.33q17.33 0 30.67-11.33 13.33-11.33 17.33-28.67v-8L1024-80q0-9.33-2.67-17.33l-4-6.67-5.33-6.67q-10.67-13.33-28-16l-8-1.33-289.33 1.33q-20 0-34 14t-14 34q0 18.67 11.33 31.33 11.33 12.67 28.67 16.67h8L928-32l-1.33 241.33q0 20 14 34t34 14z m-925.34 0q20 0 34-14t14-34L96-32l241.33 1.33h8q17.34-4 28.67-16.67 11.33-12.66 11.33-32 0-19.33-14-33.33t-34-14L48-128l-8 1.33q-17.33 2.67-28 16L6.67-104l-4 6.67Q0-89.33 0-80l1.33 289.33v8q4 17.34 17.34 28.67 13.34 11.33 30.66 11.33zM48 896l289.33-1.33q20 0 34-14t14-34q0-20-14-34t-34-14L96 800l1.33-241.33q0-20-14-34t-34-14q-20 0-34 14t-14 34L0 848q0 22.67 17.33 36L24 889.33Q34.67 896 48 896z m928 0q13.33 0 24-6.67l6.67-5.33Q1024 870.67 1024 848l-1.33-289.33q0-20-14-34t-34-14q-20 0-34 14t-14 34L928 800l-241.33-1.33q-20 0-34 14t-14 34q0 20 14 34t34 14L976 896z"  horiz-adv-x="1024" />
      
      <glyph glyph-name="trash" unicode="&#58932;" d="M868 640q17.33 0 29.33-12.66 12-12.67 13.34-31.34v-680q-1.34-18.67-13.34-30.67T868-128H156q-17.33 0-30 12.66-12.67 12.67-12.67 31.34V596q1.34 18.67 13.34 31.34Q138.67 640 156 640h712zM341.33 537.33H228v-562.66h113.33V537.33z m454.67 0H682.67v-562.66H796V537.33z m-226.67 0H454.67v-562.66h114.66V537.33zM662.67 896q32-1.33 54-22.66Q738.67 852 740 818.68v-25.34h241.33q18.67 0 30.67-12.67 12-12.66 12-30v-16q0-18.67-12-30.67t-30.67-13.33H42.67Q24 692 12 704T0 734.67v16q0 18.66 12.66 30.66t30.01 12H284V818.67q1.33 33.33 22.66 54.66Q328 894.67 361.33 895.99h301.34z"  horiz-adv-x="1024" />
      
      <glyph glyph-name="node" unicode="&#58926;" d="M85.33-42.67V640H0V896h256v-256h-85.33v-256h256v85.33H1024v-256H426.67v85.34h-256v-256h256V128H1024v-256H426.67v85.33H85.33z m853.34 85.34H512v-85.34h426.67v85.34z m0 341.33H512v-85.33h426.67V384zM1024 896v-256H426.67V896H1024z m-85.33-85.33H512v-85.34h426.67V810.67z"  horiz-adv-x="1024" />
      
      <glyph glyph-name="refresh" unicode="&#58933;" d="M769.15 478.13q-12.63 1.15-5.74 12.63L882.8 653.78q9.18 10.33 18.37 0l120.53-163.02q6.89-11.48-6.88-12.63H937.9q-4.59-180.23-121.11-299.62-116.52-119.39-293.31-123.98-67.73 0-130.87 21.81l-20.66 8.04 58.54 78.06q43.63-13.78 92.99-13.78 137.76 3.45 228.45 96.44t94.13 233.03h-76.91zM500.52 896q68.88 0 130.87-21.81l20.66-8.04-58.54-78.06q-44.77 13.78-92.99 13.78-133.17-3.45-223.28-91.84-90.12-88.4-99.3-222.71v-14.93h76.91q12.63-1.14 5.74-12.62L141.2 295.61q-9.18-9.19-18.37 0L2.3 459.77q-6.89 11.48 6.88 12.62H86.1q4.59 180.24 121.11 299.63Q323.73 891.41 500.52 896z"  horiz-adv-x="1024" />
      
      <glyph glyph-name="success-solid" unicode="&#58921;" d="M505.33 896q104 0 198.67-38.66 94.67-38.66 168.67-112.67 74-74 112.67-168.67Q1024 481.33 1024 377.33 1018.67 164 873.34 20.66 728-122.67 505.33-128 292-122.67 148.67 20.66 5.34 164 0.01 377.33q5.33 222.67 148.66 368Q292.01 890.66 505.33 895.99zM720 562.67l-258.67-260L356 408q-5.33 5.33-12.66 5.33-7.34 0-12.67-5.33L284 360q-5.33-5.33-5.33-12.66 0-7.34 5.33-11.34l164-165.33q12-10.67 25.33 0L792 489.33q5.33 5.34 5.33 12.01 0 6.66-5.33 11.99l-48 48q-5.33 5.34-12 5.34t-12-4z"  horiz-adv-x="1024" />
      
      <glyph glyph-name="dependence" unicode="&#58928;" d="M1024 640v-768H256V42.67h85.33v-85.34h597.34V554.67H597.33V640H1024zM768 896v-170.67h-85.33V810.67H85.33v-597.34h341.34V128H0V896h768zM288 656l444-400-57.33-62.67-444 398.67L288 656z"  horiz-adv-x="1024" />
      
      <glyph glyph-name="max" unicode="&#58927;" d="M974.67 257.33q17.33 0 30.67-11.33 13.33-11.33 17.33-28.67v-8L1024-80q0-9.33-2.67-17.33l-4-6.67-5.33-6.67q-10.67-13.33-28-16l-8-1.33-289.33 1.33q-17.34 0-30.67 11.33-13.33 11.34-17.33 28.67v8q0 18.67 11.33 31.33 11.33 12.67 28.67 16.67H856L654.67 170.67Q640 185.33 639.34 204q-0.67 18.67 12 34 12.66 15.33 31.33 18 18.67 2.67 36-8l6.66-6.67L926.67 40V209.33q0 20 14 34t34 14z m-925.34 0q20 0 34-14t14-34V40l201.34 201.33 6.66 6.67q17.34 10.67 36.01 8 18.66-2.67 31.33-18 12.67-15.33 12-34-0.66-18.67-15.33-33.33L168.01-30.67h177.33q17.34-4 28.67-16.67 11.33-12.66 11.33-31.33v-8q-4-17.33-17.33-28.67-13.33-11.33-30.67-11.33L48.01-128l-8 1.33q-17.33 2.67-28 16L6.68-104l-4 6.67Q0.01-89.33 0.01-80l1.33 289.33v8q4 17.34 17.34 28.67 13.34 11.33 30.66 11.33zM48 896l289.33-1.33q20 0 34-14t14-34q0-20-14-34t-34-14H168l201.33-201.34q21.34-20 14.01-48.67-7.34-28.66-36-36-28.67-7.33-48.67 14.01L97.33 728v-169.33q0-20-14-34t-34-14q-20 0-34 14t-14 34L0 848q0 22.67 17.33 36L24 889.33Q34.67 896 48 896z m928 0q13.33 0 24-6.67l6.67-5.33Q1024 870.67 1024 848l-1.33-289.33q0-20-14-34t-34-14q-20 0-34 14t-14 34V728L725.33 526.67q-16-13.34-35.33-13.34T656 528q-14.67 14.67-15.34 34-0.66 19.33 14 35.33L855.99 798.67H686.66q-20 0-34 14t-14 34q0 20 14 34t34 14L975.99 896z"  horiz-adv-x="1024" />
      
      <glyph glyph-name="clock" unicode="&#58922;" d="M505.33 896q104 0 198.67-38.66 94.67-38.66 168.67-112.67 74-74 112.67-168.67Q1024 481.33 1024 377.33 1018.67 164 873.34 20.66 728-122.67 505.33-128 292-122.67 148.67 20.66 5.34 164 0.01 377.33q5.33 222.67 148.66 368Q292.01 890.66 505.33 895.99zM520 742.67h-16q-18.67-1.34-30.67-12.67t-12-30v-325.33q0-24 21.34-36 1.33-10.67 8-20l5.33-5.34 170.67-142.66q12-9.34 27.33-9.34 15.33 0 27.33 9.34l5.34 5.33 10.66 13.33q9.34 12 10 27.33 0.66 15.34-10 27.34l-5.33 5.33L562.67 392V700q0 16-9.33 27.33-9.34 11.34-25.34 14l-8 1.34z"  horiz-adv-x="1024" />
      
      <glyph glyph-name="forbidden" unicode="&#58931;" d="M874.67 746.67Q1024 588 1024 384q0-204-149.33-362.67Q716-128 512-128q-204 0-362.67 149.33Q0 180 0 384q0 204 149.33 362.67Q308 896 512 896q204 0 362.67-149.33z m-673.34-52q-121.33-128-128-294-6.67-166 105.33-302l618.66 618.66q-136 112-302 105.33-166-6.66-294-128z m644-25.34L226.67 50.67q136-112 302-105.33 166 6.66 294 128 121.33 128 128 294 6.67 166-105.33 302z"  horiz-adv-x="1024" />
      
      <glyph glyph-name="minus-circle-empty" unicode="&#58930;" d="M512 896q217.33-5.33 362-150t150-362q-5.33-217.33-150-362t-362-150q-217.33 5.33-362 150T0 384q5.33 217.33 150 362T512 896z m0-73.33q-186.67-4-310.67-128-124-124-128-310.67 4-186.67 128-310.67 124-124 310.67-128 186.67 4 310.67 128 124 124 128 310.67-4 186.67-128 310.67-124 124-310.67 128z m238.67-384q8 0 12.67-4.67 4.66-4.67 4.66-12.67v-74.66q0-8-4.66-12.67-4.67-4.67-12.67-4.67H273.33q-6.66 0-11.99 4.67-5.34 4.67-5.34 12.67v74.66q0 8 4.66 12.67 4.67 4.67 12.67 4.67h477.34z"  horiz-adv-x="1024" />
      
      <glyph glyph-name="sand-clock" unicode="&#58929;" d="M906.67 896Q925.33 896 938 883.34 950.67 870.68 950.67 852q0-18.67-12.67-31.34Q925.33 808 906.67 808H892q-8-154.67-76-270.67-68-116-174.67-168Q742.67 320 809.33 212q66.66-108 80-252h17.34q18.66 0 31.33-12.66 12.67-12.67 12.67-31.34T938-115.34Q925.33-128 906.67-128H117.33q-18.66 0-31.33 12.66Q73.33-102.67 73.33-84T86-52.66Q98.67-40 117.33-40h17.34Q149.33 104 216 212t168 157.33q-106.67 52-174.67 168-68 116-77.33 270.67h-14.67Q98.67 809.33 86 821.33 73.33 833.33 73.33 852T86 883.34Q98.67 896 117.33 896h789.34z m-73.34-88H190.67v-20q8-141.33 75.33-243.33t172.67-135.34l14.66-4v-72q-82.66-20-145.33-86-62.67-66-94.67-163.33l6.67 4q48 21.33 132.66 32 84.67 10.67 158.67 10.67 74 0 158.67-9.33 84.67-9.34 135.33-22.67-30.66 86.66-88 147.33-57.34 60.67-130.67 83.33l-16 4v72q114.66 29.34 188 139.34T833.33 808z m-84-82.67q4 0 6.67-2.66 12-6.67 17.34-19.34 5.33-12.66 2.66-26-10.67-52-38-96.67-27.33-44.66-68.67-79.33-10.66-9.33-24-9.99-13.34-0.67-25.34 5.99-8 5.34-9.34 15.34-1.33 10 6.67 18 44 34.66 70.67 79.99 26.67 45.34 38.67 100.01 1.33 8 8 12t14.67 2.66z"  horiz-adv-x="1024" />
      
      <glyph glyph-name="play" unicode="&#58909;" d="M505.33 896q104 0 198.67-38.66 94.67-38.66 168.67-112.67 74-74 112.67-168.67Q1024 481.33 1024 377.33 1018.67 164 873.34 20.66 728-122.67 505.33-128 292-122.67 148.67 20.66 5.34 164 0.01 377.33q5.33 222.67 148.66 368Q292.01 890.66 505.33 895.99zM512 793.33q-174.67-4-290-119.33-115.33-115.33-119.33-290 4-174.67 119.33-290 115.33-115.33 290-119.33 174.67 4 290 119.33 115.33 115.33 119.33 290-4 174.67-119.33 290-115.33 115.33-290 119.33z m-88-214.66l277.33-185.34q13.34-9.33 0-18.66L424 189.33q-13.33-8-14.67 8V570.67q1.34 16 14.67 8z"  horiz-adv-x="1024" />
      
      <glyph glyph-name="timer" unicode="&#58919;" d="M503.05 814.41q200.15-3.98 333.36-137.19t138.51-333.35q-5.3-201.47-138.51-334.02Q703.2-122.7 503.05-128q-200.14 5.3-333.35 137.85Q36.49 142.4 31.19 343.87q5.3 200.14 138.51 333.35Q302.91 810.43 503.05 814.41z m0-104.71q-156.4-3.98-259.79-107.37Q139.87 498.95 135.9 343.87q3.97-156.41 107.36-259.79Q346.65-19.3 503.05-23.29q155.08 3.98 259.13 107.37 104.05 103.38 108.03 259.79-3.98 155.08-108.03 258.46Q658.13 705.72 503.05 709.7z m9.28-104.71q17.23 0 28.5-9.28t13.92-25.19v-205.44l140.5-140.5q10.6-10.61 11.92-25.85 1.33-15.24-6.63-27.17l-5.3-6.63-14.58-13.26q-10.61-11.92-25.19-13.25-14.58-1.33-27.83 7.95l-6.63 3.98-159.06 159.06q-7.95 10.6-10.6 23.85l-1.33 5.31V563.9q1.33 15.9 10.61 27.17 9.28 11.26 25.18 13.93H512.32zM888.77 884.66q5.3 5.3 11.93 5.3t11.92-5.3l104.72-104.71q3.97-5.3 3.97-11.93t-3.97-11.93l-51.7-50.37q-3.97-5.3-11.26-4.64-7.29 0.66-11.27 4.64L838.4 810.43q-9.28 11.93 0 23.86l50.37 50.37zM135.9 891.29l50.37-50.37q9.27-11.93 0-23.86L81.55 712.35q-3.97-5.3-11.26-5.3-7.29 0-11.27 5.3L7.33 762.72q-9.28 11.93 0 23.86L112.04 891.29q5.3 3.97 11.93 4.63 6.63 0.67 11.93-4.63z"  horiz-adv-x="1024" />
      
      <glyph glyph-name="success-empty" unicode="&#58924;" d="M505.33 896q104 0 198.67-38.66 94.67-38.66 168.67-112.67 74-74 112.67-168.67Q1024 481.33 1024 377.33 1018.67 164 873.34 20.66 728-122.67 505.33-128 292-122.67 148.67 20.66 5.34 164 0.01 377.33q5.33 222.67 148.66 368Q292.01 890.66 505.33 895.99zM512 793.33q-174.67-4-290-119.33-115.33-115.33-119.33-290 4-174.67 119.33-290 115.33-115.33 290-119.33 174.67 4 290 119.33 115.33 115.33 119.33 290-4 174.67-119.33 290-115.33 115.33-290 119.33z m208-230.66q5.33 4 12 4t12-5.34l48-46.66q5.33-5.34 5.33-12.67T792 489.33L473.33 170.67Q460 160 448 170.67L284 336q-5.33 4-5.33 11.34 0 7.33 5.33 12.66l46.67 48q5.33 5.33 12.67 5.33 7.33 0 12.66-5.33l105.33-105.33 258.67 260z"  horiz-adv-x="1024" />
      
      <glyph glyph-name="log" unicode="&#58918;" d="M1024 469.33V-128H524V469.33h500z m-56-54.66H580v-488h388v488z m-166.67-380V-20H634.67v54.67h166.66z m112 109.33v-54.67H634.67V144h278.66zM436 276v-78.67H0V276h436z m477.33-24v-54.67H634.67V252h278.66z m0 109.33v-54.66H634.67v54.66h278.66zM748 896q36-1.33 60-25.33t25.33-60v-256h-78.66V776q-1.34 17.33-13.34 30-12 12.67-29.33 12.67H161.33q-16 0-27.33-10-11.33-10-14-24.67l-1.33-8v-384H436v-77.33H40v496q0 36 24 60T124 896h624z"  horiz-adv-x="1024" />
      
      <glyph glyph-name="download" unicode="&#58923;" d="M543.39 345.35q8 0 12.67-5.34 4.66-5.34 4.66-12v-170.66h80q13.33-1.34 4-12L524.73 28.02q-5.34-5.34-12-5.34-6.67 0-12 5.34l-120 117.33q-9.33 10.66 4 12h80V328.01q0 6.66 4.66 12 4.67 5.34 12.67 5.34h61.33zM443.39 896q121.33-2.67 205.33-80.66 84-78 96-199.33 108 6.66 186.66-58.67t92-173.32q6.66-108-58-186.66t-174-92h-91.99v91.99h57.33q74.66 2.67 123.99 48.67 49.34 46 50.67 115.33-1.33 68-50.67 114-49.33 45.99-123.99 48.66-36 0-67.34-12.66-31.34-12.67-54-34l5.33 17.33q12 36 12 76-2.67 98.66-62 163.99-59.33 65.33-147.33 68-89.33-2.67-148.66-68t-60.66-163.99q0-50.67 17.33-93.33h-17.33q-60-1.34-99.33-40.67-39.34-39.33-40.67-99.33 1.33-58.66 40.67-98.66 39.33-40 99.33-41.34h91.99v-91.99h-91.99q-85.33 0-148 51.33T4.72 290.68q-16 84 22 155.33 38 71.33 116.66 106-9.33 65.33 9.34 128 18.66 62.66 62 112.66 43.33 50 102.66 76.67Q376.71 896 443.37 896z"  horiz-adv-x="1024" />
      
      <glyph glyph-name="dot-circle" unicode="&#58925;" d="M512 896q217.33-5.33 362-150t150-362q-5.33-217.33-150-362t-362-150q-217.33 5.33-362 150T0 384q5.33 217.33 150 362T512 896z m0-73.33q-186.67-4-310.67-128-124-124-128-310.67 4-186.67 128-310.67 124-124 310.67-128 186.67 4 310.67 128 124 124 128 310.67-4 186.67-128 310.67-124 124-310.67 128zM512 640q109.33-2.67 181.33-74.67 72-72 74.67-181.33-2.67-109.33-74.67-181.33-72-72-181.33-74.67-109.33 2.67-181.33 74.67-72 72-74.67 181.33 2.67 109.33 74.67 181.33 72 72 181.33 74.67z"  horiz-adv-x="1024" />
      
      <glyph glyph-name="stop" unicode="&#58920;" d="M505.33 896q104 0 198.67-38.66 94.67-38.66 168.67-112.67 74-74 112.67-168.67Q1024 481.33 1024 377.33 1018.67 164 873.34 20.66 728-122.67 505.33-128 292-122.67 148.67 20.66 5.34 164 0.01 377.33q5.33 222.67 148.66 368Q292.01 890.66 505.33 895.99zM512 793.33q-174.67-4-290-119.33-115.33-115.33-119.33-290 4-174.67 119.33-290 115.33-115.33 290-119.33 174.67 4 290 119.33 115.33 115.33 119.33 290-4 174.67-119.33 290-115.33 115.33-290 119.33z m137.33-256q6.67 0 11.33-4.67 4.67-4.66 4.67-11.33v-274.66q-1.33-14.67-16-16H374.67q-14.67 1.33-16 16V521.33q0 6.67 4.67 11.33 4.66 4.67 11.33 4.67h274.66z"  horiz-adv-x="1024" />
      
      <glyph glyph-name="menu" unicode="&#58908;" d="M939.79 211.55q36.09-1.34 60.15-25.4 24.07-24.06 24.07-60.16 0-36.1-24.07-60.16-24.06-24.06-60.15-25.4H84.23q-36.09 1.34-60.16 25.4Q0 89.89 0 125.99q0 36.1 24.07 60.16 24.07 24.06 60.16 25.4h855.56z m0 342.23q36.09-1.34 60.15-25.4 24.07-24.06 24.07-60.15t-24.07-60.16q-24.06-24.06-60.15-25.41H84.23Q48.14 384 24.07 408.07 0 432.13 0 468.23q0 36.09 24.07 60.15 24.07 24.06 60.16 25.4h855.56z m0 342.22q36.09-1.34 60.15-25.4Q1024.01 846.54 1024.01 810.44q0-36.09-24.07-60.16-24.06-24.06-60.15-25.4H84.23q-36.09 1.33-60.16 25.4Q0 774.34 0 810.44q0 36.1 24.07 60.16Q48.14 894.66 84.23 896h855.56z"  horiz-adv-x="1024" />
      
      <glyph glyph-name="user-solid" unicode="&#58915;" d="M512 384q109.33 2.67 181.33 74.67 72 72 74.67 181.33-2.67 109.33-74.67 181.33Q621.33 893.33 512 896 402.67 893.33 330.67 821.33q-72-72-74.67-181.33 2.67-109.33 74.67-181.33 72-72 181.33-74.67z m512-512q-5.33 217.33-150 362T512 384q-217.33-5.33-362-150T0-128h1024z"  horiz-adv-x="1024" />
      
      <glyph glyph-name="circle-solid" unicode="&#58917;" d="M512 384zM0 384q5.33-217.33 150-362t362-150q217.33 5.33 362 150t150 362q-5.33 217.33-150 362T512 896Q294.67 890.67 150 746T0 384z"  horiz-adv-x="1024" />
      
      <glyph glyph-name="danger-solid" unicode="&#58916;" d="M534.05 889.25q9.65-5.52 16.54-15.16L1017.8 83q12.4-22.05 0-44.1-12.41-22.05-38.59-23.43H44.79Q18.61 16.85 6.2 38.9q-12.41 22.05 0 44.1L473.41 874.09q11.03 16.54 27.56 20.67 16.53 4.13 33.07-5.51z m19.3-662.92h-82.7v-84.07h82.7v84.07z m0 418.98h-82.7v-336.28h82.7V645.31z"  horiz-adv-x="1024" />
      
      <glyph glyph-name="home-solid" unicode="&#58914;" d="M501.33 691.83q10.67 8 21.34 0l348-309.33v-386.67q-1.34-13.33-16-16h-240V221.17q0 6.66-4.67 11.33t-10 4.67H424q-13.33-2.67-14.67-16v-241.34H168q-5.33 0-10 4.67t-4.67 11.33V382.5l348 309.33zM520 894.5l4-2.67L717.33 722.5v112q0 6.67 4.67 11.34 4.67 4.66 11.33 5.99h120q8-1.33 12.67-5.99t4.67-11.34v-248L1024 451.83l-53.33-54.66L512 799.83l-458.67-404-53.33 56 498.67 440Q508 898.5 520 894.5z"  horiz-adv-x="1024" />
      
      <glyph glyph-name="increase" unicode="&#58911;" d="M79.53 776.7v-785.4q0-17.4 11.19-28.59 11.19-11.18 28.58-11.18h785.4q17.4 0 28.59 11.18 11.18 11.19 11.18 28.59V776.7q0 17.4-11.18 28.58-11.19 11.19-28.59 11.19H119.3q-17.4 0-28.58-11.19-11.19-11.19-11.19-28.58z m0 119.3h864.94q33.55-1.24 55.92-23.61 22.37-22.37 23.61-55.92v-864.94q-1.24-33.55-23.61-55.92-22.37-22.37-55.92-23.61H79.53q-33.55 1.24-55.92 23.61Q1.24-82.02 0-48.47V816.47q1.24 33.55 23.61 55.92Q45.98 894.76 79.53 896z m452.35-258.49v-467.26q0-17.4-11.19-28.58-11.18-11.18-28.58-11.18-17.39 0-28.58 11.18-11.19 11.18-11.19 28.58V637.51q0 17.4 11.19 28.59 11.19 11.19 28.58 11.19t28.58-11.19q11.19-11.19 11.19-28.59z m233.63-233.63q0-17.39-11.18-28.57-11.18-11.19-28.58-11.19H258.49q-17.4 0-28.59 11.19-11.19 11.18-11.19 28.58 0 17.39 11.19 28.58 11.19 11.19 28.59 11.19h467.26q17.4 0 28.58-11.19t11.18-28.58z"  horiz-adv-x="1024" />
      
      <glyph glyph-name="gear" unicode="&#58913;" d="M597.324167 896Q603.994102 896 609.994043 891.330046t8.669915-11.33989l26.65974-109.328932q23.999766-7.999922 46.669544-18.669818l95.999063 57.32944q13.32987 7.999922 25.329752-2.659974l121.338815-121.338815q3.999961-5.329948 5.329948-12.659876 1.329987-7.339928-2.669974-12.669876l-57.32944-95.999063q10.669896-22.669779 18.669818-46.669544L1007.990156 490.663958q14.669857-5.339948 15.999844-21.339791v-170.658334q0-6.669935-4.659954-12.669876-4.669954-5.999941-11.33989-8.669915l-109.328932-26.65974q-7.999922-23.999766-18.669818-45.339557l57.32944-97.32905q7.999922-13.32987-2.659974-25.329752L813.322057-38.670872q-11.999883-10.659896-25.329752-2.659974l-95.999063 57.32944q-22.669779-10.669896-46.669544-18.669818l-26.65974-109.328932q-5.339948-14.669857-21.339791-15.999844H426.665833q-15.999844 1.329987-21.339791 15.999844l-26.65974 109.328932q-23.999766 7.999922-45.339557 18.669818L235.997695-41.330846q-13.32987-7.999922-25.329752 2.659974l-121.338815 119.998828q-10.659896 11.999883-2.659974 26.669739l57.32944 95.999063q-10.669896 22.669779-18.669818 46.669544L15.999844 277.326042q-15.999844 5.339948-15.999844 21.339791V469.324167q0 6.669935 4.669954 12.669876t11.33989 8.669915l109.328932 26.65974q7.999922 23.999766 18.669818 45.339557l-57.32944 97.32905q-7.999922 13.32987 2.659974 25.329752l119.998828 121.338815q11.999883 10.659896 26.669739 2.659974l95.999063-57.32944q22.669779 10.669896 46.669544 19.999805l26.65974 107.998945q5.339948 15.999844 21.339791 15.999844h170.658334zM511.995 640.0025q-109.328932-2.669974-181.328229-74.669271-71.999297-71.999297-74.669271-181.328229 2.669974-109.328932 74.669271-181.328229 71.999297-71.999297 181.328229-74.669271 109.328932 2.669974 181.328229 74.669271 71.999297 71.999297 74.669271 181.328229-2.669974 109.328932-74.669271 181.328229-71.999297 71.999297-181.328229 74.669271z"  horiz-adv-x="1024" />
      
      <glyph glyph-name="spinner2" unicode="&#58912;" d="M512 164q18.67 0 31.34-12Q556 140 556 120v-204q0-18.67-12.66-31.34Q530.67-128 512-128t-31.34 12.66Q468-102.67 468-84V120q0 18.67 12.66 31.34Q493.33 164 512 164z m-109.33 29.33q16-9.33 20-26t-4-32.67L316-44.01q-9.33-14.67-26.66-19.34-17.34-4.66-33.34 4.67-16 9.33-20.67 26-4.66 16.66 4.67 32.66l102.67 177.33q9.33 16 25.99 20.67 16.67 4.67 34.01-4.67z m278.66-16L784 0q12-21.33 0-43.33t-37.34-22q-25.33 0-38.66 21.33L605.33 134.67q-12 21.33 0.67 43.33t38 22q25.33 0 37.33-22.67z m-360 97.34q9.34-16 4.67-33.33-4.67-17.34-20.67-26.67L128 112q-21.33-12-43.33 0t-22 37.34q0 25.33 21.33 38.66l178.67 102.67q16 8 32.67 4 16.66-4 25.99-20z m440 16L940 188q14.67-9.33 19.34-26.66Q964 144 954.67 128q-9.33-16-26-20.66-16.66-4.67-32.66 4.66L718.68 214.67q-22.67 12-22.67 37.33t22 38q22 12.67 43.33 0.67zM248 428q25.33-1.33 38-22.66 12.67-21.34 0-42.67-12.67-21.33-38-22.66H44q-18.67 0-31.34 12.66Q0 365.34 0 384.01t12.66 31.34Q25.32 428.01 44 428.01h204z m732 0q18.67 0 31.34-12.66Q1024 402.67 1024 384t-12.66-31.34Q998.67 340 980 340H776q-18.67 0-31.34 12.66Q732 365.33 732 384t12.66 31.34Q757.33 428 776 428h204z m-24 212q8-16 3.34-33.34Q954.67 589.33 940 580L761.33 477.33q-21.33-12-42.67 0.67-21.33 12.67-21.33 37.34 0 24.66 21.34 37.99L896 656q16 9.33 32.66 4.67Q945.33 656 956 640z m-828 16l177.33-102.67q16-9.33 20-25.99 4-16.67-4.67-32.67-8.66-16-25.33-20.67-16.67-4.67-32.67 3.33L83.99 580q-14.67 9.33-19.34 26.66-4.66 17.34 4.67 32.67 9.33 15.34 26 20 16.66 4.67 32.66-3.33zM768 828q16-10.67 20.66-27.34Q793.33 784 784 768L681.33 590.67q-9.33-16-26-20t-32.67 4.67q-16 8.66-20.67 25.33-4.67 16.67 3.33 32.67L707.99 812.01q9.33 14.67 26.66 19.34 17.34 4.66 33.34-3.34zM316 812l102.67-178.67q12-21.33-0.67-42.67-12.67-21.33-37.34-21.33-24.66 0-37.99 21.34L240 768q-8 16-3.33 32.66 4.66 16.67 20 26Q272 836 289.34 831.33q17.33-4.67 26.66-19.34zM512 896q18.67 0 31.34-12.66Q556 870.68 556 852v-204q0-18.67-12.66-31.34Q530.67 604 512 604t-31.34 12.66Q468 629.33 468 648V852q0 18.67 12.66 31.34Q493.33 896 512 896z"  horiz-adv-x="1024" />
      
      <glyph glyph-name="key" unicode="&#58910;" d="M872.68 162.36l-27.26 27.27q-10.91 12.27-10.91 27.95 0 15.67 11.59 27.26 11.59 11.59 27.26 11.59 15.67 0 27.94-10.91l111.78-111.78q10.91-10.91 10.91-27.27t-11.59-27.94q-11.58-11.59-27.94-11.59t-27.27 12.27l-28.62 27.26-27.27-27.26 40.9-42.26q17.72-17.72 17.72-41.58t-17.72-41.58q-17.72-17.72-41.58-17.72t-41.58 17.72L366.92 445.91q-74.98-47.71-157.45-42.26-82.47 5.46-143.82 65.44Q-3.87 541.34 0.22 639.49q4.09 98.15 79.06 177.22Q158.35 891.68 256.5 895.77q98.15 4.09 170.4-65.43 59.98-61.35 65.44-143.82 5.45-82.47-42.26-157.45l395.33-395.33 27.26 28.62zM218.34 760.81q-17.72 17.73-41.58 17.73-23.85 0-41.58-17.73-17.73-17.72-17.73-41.58t17.73-41.58q17.72-17.72 41.58-17.72t41.58 17.72q17.72 17.72 17.72 41.58 0 23.85-17.72 41.57z"  horiz-adv-x="1024" />
      
      <glyph glyph-name="documents" unicode="&#58906;" d="M938.67 554.67q36-1.34 60-25.34t25.33-60v-512q-1.33-36-25.33-60t-60-25.33H512q-36 1.33-60 25.33t-25.33 60V384l170.66 170.67h341.34zM896 469.33H768v-256H512V0q0-16 10-27.34 10-11.33 24.67-14l8-1.34H896q16 0 27.34 10 11.33 10 14 24.67l1.34 8V426.66q0 18.66-12 30.66t-30.67 12zM512 896q36-1.33 60-25.33t25.33-60V640H512V768q0 18.67-12 30.67t-30.67 12h-128v-256h-256v-213.34q0-16 10-27.33 10-11.33 24.67-14l8-1.33h213.33v-85.34h-256q-36 1.34-60 25.34T0 298.67V725.33L170.67 896H512z m170.67-426.67L512 298.67h170.67V469.33zM256 810.67L85.33 640H256V810.67z"  horiz-adv-x="1024" />
      
      <glyph glyph-name="warn-solid" unicode="&#58907;" d="M460.9 581.39l23.05-293.58q1-12.02 9.02-19.53 8.01-7.51 19.03-7.51 11.02 0 19.03 6.51 8.01 6.51 9.01 17.54l25.05 304.59h-1q0 23.05-15.03 37.58-15.03 14.52-37.07 14.52t-36.57-14.52q-14.53-14.53-15.53-37.58 0-4.01 1-8.01zM512-128q-217.42 5.01-362.21 149.8Q5.01 166.58 0 384q5.01 217.42 149.79 362.21Q294.57 890.99 512 896q217.42-5.01 362.2-149.79Q1018.99 601.43 1024 384q-5.01-217.42-149.8-362.2Q729.42-122.99 512-128z m1 202.4q24.05 0 40.58 16.53 16.53 16.53 16.53 40.07t-16.53 39.57Q537.05 186.6 513 186.6q-24.05 0-40.08-16.03-16.03-16.03-16.03-40.07t16.03-40.07Q488.95 74.4 513 74.4z"  horiz-adv-x="1024" />
      
      <glyph glyph-name="pause-solid" unicode="&#58904;" d="M1024 390.67q0-104-38.66-198.67-38.67-94.67-112.67-168.67-74-74-168.67-112.67Q609.33-128 505.33-128 292-122.67 148.67 22.66 5.34 168 0.01 390.67 5.34 604 148.67 747.33 292.01 890.66 505.33 895.99 728 890.66 873.34 747.33 1018.67 603.99 1024 390.67zM461.33 145.33V622.67Q460 636 448 640h-72q-12 0-17.33-12V145.33Q358.67 132 372 128h70.67q8 0 13.33 4.66 5.33 4.67 5.33 12.67z m204 0V622.67Q664 638.67 648 640h-66.67q-8 0-12.67-4.66-4.66-4.67-6-12.67v-477.34q2.66-16 18.66-17.33h66.67q6.67 0 12 4.66 5.33 4.67 5.33 12.67z"  horiz-adv-x="1024" />
      
      <glyph glyph-name="calendar" unicode="&#58905;" d="M905.85 817.23h-78.77V896h-78.77v-78.77H275.69V896h-78.77v-78.77h-78.77q-35.69 0-57.23-21.54t-21.54-57.23v-787.69q0-35.69 21.54-57.23t57.23-21.54h787.7q35.69 0 57.23 21.54t21.54 57.23V738.46q0 35.69-21.54 57.23t-57.23 21.54z m0-866.46h-787.7V502.15h787.7v-551.38z m-787.7 630.15V738.46h787.7v-157.54h-787.7z m157.54-236.3h157.54v-78.77H275.69v78.77z"  horiz-adv-x="1024" />
      
      <glyph glyph-name="upload" unicode="&#58903;" d="M444.1 896q121.68-2.67 205.93-80.9t96.28-199.92q108.32 5.35 186.55-59.51 78.23-64.85 90.26-173.17 8.02-108.31-56.83-186.54-64.86-78.23-173.18-92.94H234.15q-85.58 1.34-148.43 52.15-62.85 50.82-81.57 135.07-14.71 82.9 22.73 154.44 37.44 71.55 116.34 106.31-9.36 65.52 9.36 128.37 18.72 62.85 62.18 112.32 43.46 49.48 102.97 76.89Q377.24 895.98 444.1 895.98z m65.52-238.03q-5.35 5.35-12.04 5.35-6.69 0-10.69-5.35L338.46 498.84q-8.03-10.69 6.68-12.03h96.28v-227.33q0-6.69 4.68-12.04 4.68-5.34 12.71-5.34h78.89q16.05 1.33 17.39 17.38V486.81h96.28q16.04 1.34 6.68 12.03L509.62 657.97z"  horiz-adv-x="1024" />
      
      <glyph glyph-name="diary" unicode="&#58901;" d="M913.33 896q36-1.33 60-25.33t25.34-60v-853.34q-1.34-36-25.34-60t-60-25.33h-752q-36 1.33-60 25.33t-25.33 60V128H25.33V230.67H76V537.33H25.33V640H76V810.67q1.33 36 25.33 60t60 25.33h752z m-376-256q-49.33 0-86.67-36.66-37.33-36.67-39.99-106.01Q412 468 426.66 434q14.67-34 29.34-56.67 24-36 11.34-59.33-12.67-23.33-22.01-27.33l-56-29.34q-42.66-24-69.33-40-17.33-10.66-28-22-10.67-11.34-10.67-23.34v-44q0-4 4-4h504q4 0 4 4v44q-1.33 13.33-12.67 24-11.33 10.67-27.33 21.33L628 291.99q-22.67 13.33-26 40-3.33 26.67 15.33 46.67 14.67 21.33 29.33 55.33 14.67 34 16 63.33-1.34 69.34-38.67 106.01-37.33 36.66-86.67 36.66z"  horiz-adv-x="1024" />
      
      <glyph glyph-name="fail-empty" unicode="&#58902;" d="M505.33 896q104 0 198.67-38.66 94.67-38.66 168.67-112.67 74-74 112.67-168.67Q1024 481.33 1024 377.33 1018.67 164 873.34 20.66 728-122.67 505.33-128 292-122.67 148.67 20.66 5.34 164 0.01 377.33q5.33 222.67 148.66 368Q292.01 890.66 505.33 895.99zM512 793.33q-174.67-4-290-119.33-115.33-115.33-119.33-290 4-174.67 119.33-290 115.33-115.33 290-119.33 174.67 4 290 119.33 115.33 115.33 119.33 290-4 174.67-119.33 290-115.33 115.33-290 119.33z m133.33-204q12 9.34 24-1.33L716 541.33q5.33-5.33 6-12.67 0.67-7.33-4.67-11.33L584 384l133.33-133.33q5.34-5.34 4.67-12-0.67-6.66-4.67-12l-48-46.67q-12-10.67-24-1.33L512 312 378.67 178.67q-8-8-20-2.67l-4 2.67-46.67 48q-5.33 5.33-6 12-0.67 6.67 4.67 12L440 384 306.67 517.33q-5.34 5.34-4.67 12.01 0.67 6.66 6 11.99L354.67 588q12 10.67 24 1.33L512 456l133.33 133.33z"  horiz-adv-x="1024" />
      
      <glyph glyph-name="pen" unicode="&#58896;" d="M1009.91-17.95V-128H14.09V-17.95h995.82z m-526.09 736.8L639.5 561.82 171.11 92.1H14.09V249.12l469.73 469.73zM709.28 883.92l95.29-96.63q13.42-13.42 13.42-30.2t-13.42-30.19l-87.23-87.24L561.66 796.69l87.23 87.23Q660.97 896 678.41 896q17.45 0 30.87-12.08z"  horiz-adv-x="1024" />
      
      <glyph glyph-name="reduce" unicode="&#58900;" d="M79.53 776.7v-785.4q0-17.4 11.19-28.59 11.19-11.18 28.58-11.18h785.4q17.4 0 28.59 11.18 11.18 11.19 11.18 28.59V776.7q0 17.4-11.18 28.58-11.19 11.19-28.59 11.19H119.3q-17.4 0-28.58-11.19-11.19-11.19-11.19-28.58z m0 119.3h864.94q33.55-1.24 55.92-23.61 22.37-22.37 23.61-55.92v-864.94q-1.24-33.55-23.61-55.92-22.37-22.37-55.92-23.61H79.53q-33.55 1.24-55.92 23.61Q1.24-82.02 0-48.47V816.47q1.24 33.55 23.61 55.92Q45.98 894.76 79.53 896z m685.98-492.12q0-17.39-11.18-28.57-11.18-11.19-28.58-11.19H258.49q-17.4 0-28.59 11.19-11.19 11.18-11.19 28.58 0 17.39 11.19 28.58 11.19 11.19 28.59 11.19h467.26q17.4 0 28.58-11.19t11.18-28.58z"  horiz-adv-x="1024" />
      
      <glyph glyph-name="user-circle-solid" unicode="&#58897;" d="M512 896q217.33-5.33 362-150t150-362q-5.33-217.33-150-362t-362-150q-217.33 5.33-362 150T0 384q5.33 217.33 150 362T512 896z m0-181.33q-58.67 0-102.67-42.67T364 546.67Q365.33 512 382 472t34-65.33q29.33-42.67 14-70.01-15.33-27.33-27.33-32.66l-64-34.67q-50.67-28-82.67-48-20-12-32.67-24.67-12.66-12.66-12.66-27.33v-56h602.66v56q-1.33 16-14.67 28.67-13.33 12.67-32 24.67-32 18.66-84 46.66l-64 36q-12 5.34-26.67 32.67-14.67 27.33 14.67 70 17.33 25.33 34.67 65.33 17.33 40 18.66 73.34-2.67 82.66-46.67 125.33t-101.33 42.67z"  horiz-adv-x="1024" />
      
      <glyph glyph-name="notice-solid" unicode="&#58898;" d="M873.85 745.85Q716.7 896 512 896 307.3 896 150.15 745.85 0 588.7 0 384q0-204.7 150.15-361.85Q307.3-128 512-128q204.7 0 361.85 150.15Q1024 179.3 1024 384q0 204.7-150.15 361.85zM543.53 147.27q0-14.01-9.01-22.52T512 116.24q-13.51 0-22.52 8.51t-9.01 22.52V466.58q0 14.01 9.01 23.02t22.52 9.01q13.51 0 22.52-9.01t9.01-23.02v-319.31z m-31.03 409.4q-16.02 1-27.03 11.51-11.01 10.51-11.01 27.03 0 16.51 11.01 27.52 11.01 11.01 27.03 11.01 16.02 0 27.03-11.01 11.01-11.01 11.01-27.52 0-16.52-11.01-27.03-11.01-10.51-27.03-11.51z"  horiz-adv-x="1024" />
      
      <glyph glyph-name="coin" unicode="&#58899;" d="M512 896q217.33-5.33 362-150t150-362q-5.33-217.33-150-362t-362-150q-217.33 5.33-362 150T0 384q5.33 217.33 150 362T512 896z m0-73.33q-186.67-4-310.67-128-124-124-128-310.67 4-186.67 128-310.67 124-124 310.67-128 186.67 4 310.67 128 124 124 128 310.67-4 186.67-128 310.67-124 124-310.67 128z m170.67-268v-341.34H341.33V554.67h341.34z m-85.34-85.34H426.67v-170.66h170.66V469.33z"  horiz-adv-x="1024" />
      
    </font>
</defs>
</svg>
